PathFileType	4	(X/Y/Z)	Patient4_TMGait_0pt7_02_left_42.trc.trc
DataRate	CameraRate	NumFrames	NumMarkers	Units	OrigDataRate	OrigDataStartFrame	OrigNumFrames
84.848484848485	84.848484848485	4	33	mm	84.848484848485	89	       141
Frame#	Time	Sacral			L.Shoulder			Chest			R.Shoulder			Neck			R.ASIS			L.ASIS			R.Thigh.Superior			R.Thigh.Lateral			R.Thigh.Inferior			R.Patella			L.Thigh.Superior			L.Thigh.Lateral			L.Thigh.Inferior			L.Patella			L.Shank.Superior			L.Shank.Lateral			L.Shank.Inferior			R.Shank.Superior			R.Shank.Lateral			R.Shank.Inferior			R.Heel			R.Midfoot.Superior			R.Midfoot.Lateral			R.Toe			L.Heel			L.Midfoot.Lateral			L.Midfoot.Superior			L.Toe			L.Elbow			L.Wrist			R.Elbow			R.Wrist			
		X1	Y1	Z1	X2	Y2	Z2	X3	Y3	Z3	X4	Y4	Z4	X5	Y5	Z5	X6	Y6	Z6	X7	Y7	Z7	X8	Y8	Z8	X9	Y9	Z9	X10	Y10	Z10	X11	Y11	Z11	X12	Y12	Z12	X13	Y13	Z13	X14	Y14	Z14	X15	Y15	Z15	X16	Y16	Z16	X17	Y17	Z17	X18	Y18	Z18	X19	Y19	Z19	X20	Y20	Z20	X21	Y21	Z21	X22	Y22	Z22	X23	Y23	Z23	X24	Y24	Z24	X25	Y25	Z25	X26	Y26	Z26	X27	Y27	Z27	X28	Y28	Z28	X29	Y29	Z29	X30	Y30	Z30	X31	Y31	Z31	X32	Y32	Z32	X33	Y33	Z33	

89	49.147142857143	718.992349313433	1005.685071674783	493.996931031009	920.047501453756	1418.917616641322	299.210777609071	1012.928373532644	1351.688571600189	468.040265536716	925.010354336573	1439.201118637843	633.048709154599	916.793436134256	1485.791956107235	450.801338063604	942.612231920810	935.737356740942	618.155504786670	936.805734804685	955.318771644187	342.867187177512	1007.239480189861	749.775748155726	585.169120974250	938.944752478319	631.338059159500	642.456221019120	1023.965163397331	589.933825732191	562.806385909326	1038.240522901318	499.803062809550	569.180536194977	954.823742316491	730.598092013253	363.333870964629	851.235315417456	625.976442386131	299.898175824611	929.213067098876	532.435374584441	355.056098475882	914.508508066740	449.705576277694	351.910589437491	845.684359864863	396.300951864592	347.699406240414	704.824669584434	350.772769080613	301.567676013474	694.444982918663	222.129238163927	359.544638723388	1012.693960472799	409.441065964906	574.396421620779	946.498128396592	301.249576260415	633.863978590249	994.027105901954	209.310013519093	569.983306529558	868.353427140120	42.401255828916	537.664072347310	1039.555503418437	98.835832894718	574.406110481866	951.607221905152	37.042765718925	611.669252399146	1159.707813020789	45.420190970902	601.315693865177	505.400292686336	146.578938729176	399.542305622173	567.011786100385	97.151761770237	326.143238716512	669.729968750139	117.402695813394	346.896527516689	756.963720397443	31.396838802535	334.851921679947	896.692067542730	1075.645604575243	174.528636344687	1138.929051134098	1024.730033311972	239.681755210672	817.265738488244	1110.937644797541	758.026470286399	838.936089934732	849.337845872096	765.166004893659	
90	49.158928571429	718.960417592064	1007.357940927648	497.187292627157	920.143379249197	1420.259395433809	301.829330958963	1013.926209143336	1352.513226078627	469.942387397655	927.411872408715	1440.029829001561	635.558736762136	917.683133760334	1486.848453299965	453.583596765457	943.017580115006	936.625095169625	620.316189468282	936.509856637675	956.173923455341	345.307884700410	1004.822680000858	748.615022916123	588.407709553166	934.134203718269	631.571836335065	644.925188909174	1018.710680958093	589.067030323330	565.365862037892	1031.582227205831	499.115764453721	571.374250024987	959.708273899705	733.316161409200	365.672499580554	860.683817186331	626.035922548204	301.187421702380	941.379180105262	534.171787291896	356.644000570920	927.699838250678	450.140381107472	352.803061502727	856.900322587830	397.110419737254	348.585078927623	714.531368293017	356.829648708153	302.055225949414	699.521975820179	228.609104400005	359.564468838575	1005.815354395547	409.116828641484	576.331812777404	939.053890778911	300.993047051764	635.175154822667	986.477611595063	209.139714270467	571.006252380870	860.286190394099	42.417457174909	537.802110412377	1031.583167297529	98.702939308290	574.707793215363	943.515401960031	36.996085731060	611.794263091387	1151.697419431177	44.880459288242	601.553004790111	507.862627783410	163.324963627800	399.057652980663	566.298026650337	109.716077604572	325.824983727322	670.203855279625	123.399533632910	346.396639273021	750.751618408266	30.379846390749	334.613108704333	890.061542325185	1076.155022354912	180.095761535313	1129.354871515530	1007.707751345376	242.741055162379	826.105777066487	1108.986871413492	760.732985988119	862.634815716383	848.853462672869	764.499105314389	
91	49.170714285714	718.716527512924	1008.875534671055	500.223615588109	919.880021838937	1421.457706821077	304.393529334531	1014.787007080538	1353.084773024552	471.630596057149	929.947265257515	1440.578791664897	638.008604944100	918.461580011023	1487.738494503545	456.349968097112	943.211632139903	937.361993843786	622.308229718677	935.732200282138	956.666816394029	347.539797326875	1002.181118303941	747.496225406073	591.618127254472	929.179596001519	631.822142938318	647.357234129277	1013.344009266473	588.249937605459	567.941678871247	1024.789581853905	498.492944425827	573.626199097318	964.549532090739	736.338589579845	368.104425323856	870.517844413257	626.432568142579	302.312120727479	953.748632664919	536.458744887166	358.351874801884	941.254995134187	451.158121491517	353.925610844462	868.704341500697	398.321656044627	349.608452549774	725.121125826422	363.051417380837	302.566040393326	705.561839921230	235.485625223119	359.814792765627	998.856214049636	408.834958911503	578.283273430880	931.520439476507	300.771706185920	636.488602136417	978.896059855162	209.010130181714	572.070058056025	852.175523772507	42.477074252019	537.957749828631	1023.605902069913	98.521550202716	575.050432718676	935.383938262838	36.953008120782	611.919752230027	1143.647902946043	44.280949954511	601.782603955851	511.861970856556	180.207310407337	398.784227739589	567.101430115582	122.903637176133	325.620886798123	671.833787431902	130.209852396549	346.139263493461	745.746886588542	29.845867654147	334.332309173008	883.804693499732	1076.534797853010	185.754082194046	1118.617901360691	989.684276892788	245.380768333659	835.220212691650	1107.024848116498	763.559024676045	886.958007863415	849.357970740134	763.676839011861	
92	49.182500000000	718.291414842413	1010.221690050580	503.081281832890	919.257741843216	1422.532852135430	306.879744648086	1015.480923316713	1353.439767418063	473.096163663058	932.542834513985	1440.873973863940	640.374307329191	919.133364453992	1488.487220992871	459.065414132330	943.189456966899	938.007913256353	624.139858062997	934.486962321852	956.838200147053	349.565297649639	999.369157899993	746.484776339012	594.735804028714	924.176053150664	632.113488147083	649.711681304276	1007.951685836799	587.509551458987	570.481627714627	1017.962295050635	497.950652191954	575.882701583672	969.228917188884	739.691270177920	370.612801294826	880.511330438076	627.272018965998	303.283278983970	966.105697457422	539.364466086698	360.101762037697	954.989353873933	452.833590992801	355.144474463880	880.916257382262	400.003886007068	350.674426512092	736.370288643124	369.378847555999	303.118700136717	712.526996977240	242.620318473967	360.264233754122	991.891628520132	408.606715388527	580.214894923357	923.949148240769	300.616734924146	637.786593731910	971.307801319832	208.932148420123	573.156046383058	844.019446520676	42.585816624506	538.137835986185	1015.620525637062	98.334331076030	575.428212837692	927.213204800096	36.920627088157	612.049407528446	1135.552501101683	43.664929407605	602.008705612274	517.344537053713	196.666408054649	398.763707211896	569.523353914445	136.251688498990	325.568261422683	674.744261089222	137.648496114757	346.122378690947	742.344201138357	30.034426152368	334.038021239485	877.932234042652	1076.749447010666	191.506784427897	1106.503590663955	970.894450001803	247.553885813249	844.710530886522	1105.024565530561	766.439005518240	911.794921998766	850.888022635269	762.648633768377	
